<svg xmlns="http://www.w3.org/2000/svg" width="400" height="400" viewBox="0 0 400 400" version="1.1"><path d="M 95.960 83.303 C 92.984 84.877, 90.877 86.984, 89.303 89.960 L 87 94.315 87 192.500 L 87 290.685 89.303 295.040 C 90.877 298.016, 92.984 300.123, 95.960 301.697 L 100.315 304 198.500 304 L 296.685 304 301.040 301.697 C 304.016 300.123, 306.123 298.016, 307.697 295.040 L 310 290.685 310 192.500 L 310 94.315 307.697 89.960 C 306.123 86.984, 304.016 84.877, 301.040 83.303 L 296.685 81 198.500 81 L 100.315 81 95.960 83.303 M 175.500 130.104 C 163.950 136.731, 153.713 142.864, 152.750 143.732 C 151.168 145.158, 151 147.823, 151 171.464 C 151 190.895, 151.321 198.015, 152.250 199.164 C 154.156 201.522, 196.219 225.211, 198.500 225.211 C 200.781 225.211, 242.844 201.522, 244.750 199.164 C 245.678 198.016, 246 190.955, 246 171.763 C 246 146.274, 245.968 145.878, 243.750 143.697 C 240.599 140.599, 200.632 117.994, 198.362 118.026 C 197.338 118.041, 187.050 123.476, 175.500 130.104 M 179.735 135.241 C 166.041 143.071, 162.260 145.658, 163.235 146.529 C 164.767 147.898, 197.723 167, 198.553 167 C 199.737 167, 235 146.734, 235 146.053 C 235 145.160, 201.046 125.572, 199.012 125.292 C 198.181 125.177, 189.506 129.654, 179.735 135.241 M 158.033 173.135 L 158.066 195.500 175.575 205.500 C 185.205 211, 193.515 215.650, 194.042 215.833 C 194.634 216.039, 195 207.781, 195 194.226 L 195 172.285 178.750 162.974 C 169.813 157.854, 161.488 153.013, 160.250 152.217 L 158 150.770 158.033 173.135 M 219.750 162.303 L 202 172.473 202 194.810 L 202 217.147 207.750 213.868 C 210.912 212.064, 219.125 207.360, 226 203.414 L 238.500 196.239 238.769 174.120 C 238.917 161.954, 238.692 152.030, 238.269 152.066 C 237.846 152.102, 229.512 156.709, 219.750 162.303 M 103.709 234.624 C 103.319 235.014, 103 241.526, 103 249.094 C 103 262.769, 103.016 262.868, 105.635 264.927 C 108.510 267.189, 115.703 267.764, 119.005 265.997 C 120.257 265.327, 121.084 265.327, 121.498 265.997 C 122.668 267.889, 131.538 267.152, 134.365 264.927 C 135.814 263.788, 137 262.469, 137 261.997 C 137 260.537, 132.640 260.416, 129.787 261.797 C 126.710 263.286, 123 262.011, 123 259.465 C 123 258.309, 124.580 258, 130.500 258 L 138 258 138 255.135 C 138 248.694, 130.217 243.783, 123.516 245.995 C 118.602 247.616, 116 251.311, 116 256.666 C 116 261.416, 114.124 263.196, 111.114 261.303 C 109.811 260.484, 109.404 257.803, 109 247.394 C 108.534 235.367, 108.363 234.480, 106.459 234.208 C 105.336 234.047, 104.099 234.235, 103.709 234.624 M 141.607 235.582 C 141.273 236.452, 141 243.877, 141 252.082 L 141 267 144.500 267 C 146.556 267, 148 266.505, 148 265.800 C 148 264.867, 148.267 264.867, 149.200 265.800 C 150.878 267.478, 157.130 267.297, 159.701 265.497 C 162.440 263.578, 164.345 257.849, 163.510 254.043 C 162.004 247.190, 156.289 243.712, 150.928 246.386 L 148 247.847 148 242.123 C 148 238.976, 147.460 235.860, 146.800 235.200 C 145.106 233.506, 142.325 233.710, 141.607 235.582 M 263.032 235.940 C 261.386 239.016, 263.391 242.209, 266.716 241.810 C 270.065 241.408, 271.893 238.644, 270.394 236.250 C 268.750 233.624, 264.370 233.440, 263.032 235.940 M 172.378 246.437 C 168.062 248.316, 166 251.665, 166 256.799 C 166 260.279, 166.587 261.741, 168.923 264.077 C 171.398 266.551, 172.637 267, 177 267 C 181.363 267, 182.602 266.551, 185.077 264.077 C 187.413 261.741, 188 260.279, 188 256.799 C 188 251.573, 185.911 248.279, 181.401 246.394 C 177.340 244.697, 176.365 244.702, 172.378 246.437 M 202 245.709 C 201.175 246.013, 199.768 246.897, 198.874 247.674 C 197.466 248.896, 197.167 248.879, 196.655 247.543 C 195.881 245.526, 192.385 245.553, 191.607 247.582 C 191.273 248.452, 191 253.177, 191 258.082 L 191 267 194.500 267 L 198 267 198 260.571 C 198 253.775, 199.654 250.597, 202.871 251.211 C 204.178 251.460, 204.558 253.053, 204.792 259.261 L 205.084 267 208.542 267 L 212 267 212 258.455 C 212 250.715, 211.769 249.678, 209.545 247.455 C 207.156 245.065, 205.066 244.582, 202 245.709 M 221.378 246.437 C 217.062 248.316, 215 251.665, 215 256.799 C 215 260.279, 215.587 261.741, 217.923 264.077 C 221.870 268.024, 229.426 268.263, 233.694 264.577 L 236.500 262.154 233.538 261.021 C 231.303 260.166, 230.032 260.180, 228.356 261.077 C 225.528 262.591, 223.288 261.727, 221.849 258.569 C 219.804 254.080, 225.327 248.727, 228.613 252.013 C 229.297 252.697, 230.671 252.662, 232.845 251.904 C 235.596 250.945, 235.878 250.557, 234.782 249.236 C 233.392 247.560, 227.851 244.976, 225.782 245.039 C 225.077 245.061, 223.095 245.690, 221.378 246.437 M 246 245.652 C 239.699 247.728, 236.357 252.759, 237.441 258.537 C 239.192 267.868, 253.472 270.242, 258.335 262.010 C 261.684 256.341, 259.354 248.882, 253.466 246.421 C 249.948 244.951, 248.561 244.808, 246 245.652 M 283.500 246.382 C 281.437 247.270, 279.995 247.363, 278.882 246.679 C 277.993 246.132, 276.530 245.966, 275.632 246.311 C 274.273 246.833, 274 248.613, 274 256.969 L 274 267 277.250 267.002 L 280.500 267.004 280.172 261.209 C 279.908 256.558, 280.241 254.930, 281.859 252.958 C 283.505 250.951, 284.208 250.703, 285.687 251.605 C 287.113 252.474, 287.563 254.235, 287.794 259.855 L 288.088 267 291.044 267 L 294 267 294 257.557 C 294 248.932, 293.807 247.978, 291.777 246.557 C 289.123 244.698, 287.491 244.663, 283.500 246.382 M 263.628 247.528 C 262.699 249.948, 262.895 264.286, 263.878 265.837 C 264.345 266.573, 265.800 267.023, 267.113 266.837 C 269.447 266.507, 269.500 266.279, 269.500 256.500 L 269.500 246.500 266.878 246.196 C 265.169 245.998, 264.037 246.462, 263.628 247.528 M 124.200 251.200 C 122.133 253.267, 122.865 254, 127 254 C 129.200 254, 131 253.640, 131 253.200 C 131 251.849, 128.688 250, 127 250 C 126.120 250, 124.860 250.540, 124.200 251.200 M 149.096 252.384 C 147.400 254.428, 148.121 260.061, 150.250 261.394 C 153.797 263.615, 158.012 258.790, 156.443 254.303 C 155.314 251.075, 151.097 249.973, 149.096 252.384 M 173.333 253.615 C 171.795 255.961, 171.771 256.502, 173.098 258.865 C 175.146 262.514, 179.028 262.429, 180.817 258.697 C 181.974 256.282, 181.938 255.554, 180.557 253.447 C 178.472 250.264, 175.482 250.334, 173.333 253.615 M 245.035 252.934 C 243.492 255.818, 243.778 258.489, 245.829 260.345 C 248.112 262.411, 249.426 262.431, 251.429 260.429 C 253.288 258.569, 253.499 253.899, 251.800 252.200 C 249.963 250.363, 246.192 250.772, 245.035 252.934" stroke="none" fill="#f46b2b" fill-rule="evenodd"/><path d="M -0 200.002 L -0 400.005 200.250 399.752 L 400.500 399.500 400.752 199.750 L 401.005 0 200.502 0 L 0 0 -0 200.002 M 0.490 200.500 C 0.490 310.500, 0.607 355.352, 0.750 300.170 C 0.893 244.989, 0.893 154.989, 0.750 100.170 C 0.607 45.352, 0.490 90.500, 0.490 200.500 M 95.960 83.303 C 92.984 84.877, 90.877 86.984, 89.303 89.960 L 87 94.315 87 192.500 L 87 290.685 89.303 295.040 C 90.877 298.016, 92.984 300.123, 95.960 301.697 L 100.315 304 198.500 304 L 296.685 304 301.040 301.697 C 304.016 300.123, 306.123 298.016, 307.697 295.040 L 310 290.685 310 192.500 L 310 94.315 307.697 89.960 C 306.123 86.984, 304.016 84.877, 301.040 83.303 L 296.685 81 198.500 81 L 100.315 81 95.960 83.303 M 175.500 130.104 C 163.950 136.731, 153.713 142.864, 152.750 143.732 C 151.168 145.158, 151 147.823, 151 171.464 C 151 190.895, 151.321 198.015, 152.250 199.164 C 154.156 201.522, 196.219 225.211, 198.500 225.211 C 200.781 225.211, 242.844 201.522, 244.750 199.164 C 245.678 198.016, 246 190.955, 246 171.763 C 246 146.274, 245.968 145.878, 243.750 143.697 C 240.599 140.599, 200.632 117.994, 198.362 118.026 C 197.338 118.041, 187.050 123.476, 175.500 130.104 M 179.735 135.241 C 166.041 143.071, 162.260 145.658, 163.235 146.529 C 164.767 147.898, 197.723 167, 198.553 167 C 199.737 167, 235 146.734, 235 146.053 C 235 145.160, 201.046 125.572, 199.012 125.292 C 198.181 125.177, 189.506 129.654, 179.735 135.241 M 158.033 173.135 L 158.066 195.500 175.575 205.500 C 185.205 211, 193.515 215.650, 194.042 215.833 C 194.634 216.039, 195 207.781, 195 194.226 L 195 172.285 178.750 162.974 C 169.813 157.854, 161.488 153.013, 160.250 152.217 L 158 150.770 158.033 173.135 M 219.750 162.303 L 202 172.473 202 194.810 L 202 217.147 207.750 213.868 C 210.912 212.064, 219.125 207.360, 226 203.414 L 238.500 196.239 238.769 174.120 C 238.917 161.954, 238.692 152.030, 238.269 152.066 C 237.846 152.102, 229.512 156.709, 219.750 162.303 M 103.709 234.624 C 103.319 235.014, 103 241.526, 103 249.094 C 103 262.769, 103.016 262.868, 105.635 264.927 C 108.510 267.189, 115.703 267.764, 119.005 265.997 C 120.257 265.327, 121.084 265.327, 121.498 265.997 C 122.668 267.889, 131.538 267.152, 134.365 264.927 C 135.814 263.788, 137 262.469, 137 261.997 C 137 260.537, 132.640 260.416, 129.787 261.797 C 126.710 263.286, 123 262.011, 123 259.465 C 123 258.309, 124.580 258, 130.500 258 L 138 258 138 255.135 C 138 248.694, 130.217 243.783, 123.516 245.995 C 118.602 247.616, 116 251.311, 116 256.666 C 116 261.416, 114.124 263.196, 111.114 261.303 C 109.811 260.484, 109.404 257.803, 109 247.394 C 108.534 235.367, 108.363 234.480, 106.459 234.208 C 105.336 234.047, 104.099 234.235, 103.709 234.624 M 141.607 235.582 C 141.273 236.452, 141 243.877, 141 252.082 L 141 267 144.500 267 C 146.556 267, 148 266.505, 148 265.800 C 148 264.867, 148.267 264.867, 149.200 265.800 C 150.878 267.478, 157.130 267.297, 159.701 265.497 C 162.440 263.578, 164.345 257.849, 163.510 254.043 C 162.004 247.190, 156.289 243.712, 150.928 246.386 L 148 247.847 148 242.123 C 148 238.976, 147.460 235.860, 146.800 235.200 C 145.106 233.506, 142.325 233.710, 141.607 235.582 M 263.032 235.940 C 261.386 239.016, 263.391 242.209, 266.716 241.810 C 270.065 241.408, 271.893 238.644, 270.394 236.250 C 268.750 233.624, 264.370 233.440, 263.032 235.940 M 172.378 246.437 C 168.062 248.316, 166 251.665, 166 256.799 C 166 260.279, 166.587 261.741, 168.923 264.077 C 171.398 266.551, 172.637 267, 177 267 C 181.363 267, 182.602 266.551, 185.077 264.077 C 187.413 261.741, 188 260.279, 188 256.799 C 188 251.573, 185.911 248.279, 181.401 246.394 C 177.340 244.697, 176.365 244.702, 172.378 246.437 M 202 245.709 C 201.175 246.013, 199.768 246.897, 198.874 247.674 C 197.466 248.896, 197.167 248.879, 196.655 247.543 C 195.881 245.526, 192.385 245.553, 191.607 247.582 C 191.273 248.452, 191 253.177, 191 258.082 L 191 267 194.500 267 L 198 267 198 260.571 C 198 253.775, 199.654 250.597, 202.871 251.211 C 204.178 251.460, 204.558 253.053, 204.792 259.261 L 205.084 267 208.542 267 L 212 267 212 258.455 C 212 250.715, 211.769 249.678, 209.545 247.455 C 207.156 245.065, 205.066 244.582, 202 245.709 M 221.378 246.437 C 217.062 248.316, 215 251.665, 215 256.799 C 215 260.279, 215.587 261.741, 217.923 264.077 C 221.870 268.024, 229.426 268.263, 233.694 264.577 L 236.500 262.154 233.538 261.021 C 231.303 260.166, 230.032 260.180, 228.356 261.077 C 225.528 262.591, 223.288 261.727, 221.849 258.569 C 219.804 254.080, 225.327 248.727, 228.613 252.013 C 229.297 252.697, 230.671 252.662, 232.845 251.904 C 235.596 250.945, 235.878 250.557, 234.782 249.236 C 233.392 247.560, 227.851 244.976, 225.782 245.039 C 225.077 245.061, 223.095 245.690, 221.378 246.437 M 246 245.652 C 239.699 247.728, 236.357 252.759, 237.441 258.537 C 239.192 267.868, 253.472 270.242, 258.335 262.010 C 261.684 256.341, 259.354 248.882, 253.466 246.421 C 249.948 244.951, 248.561 244.808, 246 245.652 M 283.500 246.382 C 281.437 247.270, 279.995 247.363, 278.882 246.679 C 277.993 246.132, 276.530 245.966, 275.632 246.311 C 274.273 246.833, 274 248.613, 274 256.969 L 274 267 277.250 267.002 L 280.500 267.004 280.172 261.209 C 279.908 256.558, 280.241 254.930, 281.859 252.958 C 283.505 250.951, 284.208 250.703, 285.687 251.605 C 287.113 252.474, 287.563 254.235, 287.794 259.855 L 288.088 267 291.044 267 L 294 267 294 257.557 C 294 248.932, 293.807 247.978, 291.777 246.557 C 289.123 244.698, 287.491 244.663, 283.500 246.382 M 263.628 247.528 C 262.699 249.948, 262.895 264.286, 263.878 265.837 C 264.345 266.573, 265.800 267.023, 267.113 266.837 C 269.447 266.507, 269.500 266.279, 269.500 256.500 L 269.500 246.500 266.878 246.196 C 265.169 245.998, 264.037 246.462, 263.628 247.528 M 124.200 251.200 C 122.133 253.267, 122.865 254, 127 254 C 129.200 254, 131 253.640, 131 253.200 C 131 251.849, 128.688 250, 127 250 C 126.120 250, 124.860 250.540, 124.200 251.200 M 149.096 252.384 C 147.400 254.428, 148.121 260.061, 150.250 261.394 C 153.797 263.615, 158.012 258.790, 156.443 254.303 C 155.314 251.075, 151.097 249.973, 149.096 252.384 M 173.333 253.615 C 171.795 255.961, 171.771 256.502, 173.098 258.865 C 175.146 262.514, 179.028 262.429, 180.817 258.697 C 181.974 256.282, 181.938 255.554, 180.557 253.447 C 178.472 250.264, 175.482 250.334, 173.333 253.615 M 245.035 252.934 C 243.492 255.818, 243.778 258.489, 245.829 260.345 C 248.112 262.411, 249.426 262.431, 251.429 260.429 C 253.288 258.569, 253.499 253.899, 251.800 252.200 C 249.963 250.363, 246.192 250.772, 245.035 252.934" stroke="none" fill="#fcfbfb" fill-rule="evenodd"/></svg>